<?xml version="1.0" standalone="no"?>
<!DOCTYPE svg PUBLIC "-//W3C//DTD SVG 20010904//EN"
 "http://www.w3.org/TR/2001/REC-SVG-20010904/DTD/svg10.dtd">
<svg version="1.0" xmlns="http://www.w3.org/2000/svg"
 width="93.000000pt" height="79.000000pt" viewBox="0 0 93.000000 79.000000"
 preserveAspectRatio="xMidYMid meet">
<metadata>
Created by potrace 1.10, written by Peter Selinger 2001-2011
</metadata>
<g transform="translate(0.000000,79.000000) scale(0.100000,-0.100000)"
fill="#000000" stroke="none">
<path d="M271 602 l-184 -157 57 -3 c77 -4 62 -22 -18 -22 -58 0 -65 -2 -81
-27 -15 -23 -16 -28 -3 -37 8 -6 108 -85 222 -176 115 -91 211 -164 215 -164
11 2 370 309 370 317 1 10 -78 9 -117 -3 -29 -8 -79 -46 -189 -144 l-23 -19 0
91 0 92 173 0 c153 1 174 3 195 19 12 11 22 22 22 25 0 7 -441 365 -450 366
-3 0 -88 -71 -189 -158z m326 17 c76 -62 168 -136 206 -167 37 -30 67 -58 67
-62 0 -15 -81 -19 -397 -21 -178 0 -323 -3 -323 -5 0 -5 318 -264 325 -264 3
0 61 47 128 103 106 90 177 133 177 107 0 -5 -53 -52 -117 -106 -64 -55 -130
-111 -147 -126 -17 -15 -35 -27 -39 -28 -5 0 -101 73 -213 162 -162 129 -201
165 -191 175 9 9 106 14 356 20 l345 8 -140 114 c-76 63 -147 121 -156 129
-16 13 -28 4 -134 -92 -109 -99 -120 -106 -158 -106 l-41 1 50 42 c27 23 97
83 155 134 58 50 106 92 107 92 2 1 65 -49 140 -110z m-14 -118 c42 -35 77
-68 77 -73 0 -13 -14 -3 -107 74 -45 37 -86 68 -90 68 -5 0 -45 -34 -91 -76
-45 -42 -87 -74 -93 -72 -6 2 33 43 86 91 96 85 98 86 119 69 12 -9 57 -46 99
-81z m-68 -36 c22 -18 36 -37 32 -41 -4 -4 -23 8 -42 26 l-35 34 -33 -32 c-48
-47 -68 -39 -22 8 21 22 44 40 50 40 5 -1 28 -16 50 -35z m-93 -202 c2 -49 3
-89 2 -91 -1 -2 -47 34 -102 80 l-99 83 91 6 c50 3 94 6 97 7 4 1 9 -37 11
-85z m58 -20 c0 -54 3 -73 10 -63 5 8 10 11 10 5 0 -17 -14 -31 -30 -30 -9 0
-14 8 -11 20 2 11 4 48 5 83 2 90 16 77 16 -15z"/>
</g>
</svg>
